<?xml version="1.0" encoding="utf-8"?>
<!-- Generator: Adobe Illustrator 25.2.3, SVG Export Plug-In . SVG Version: 6.00 Build 0)  -->
<svg version="1.1" id="Layer_2" xmlns="http://www.w3.org/2000/svg" xmlns:xlink="http://www.w3.org/1999/xlink" x="0px" y="0px"
	 viewBox="0 0 128 128" style="enable-background:new 0 0 128 128;" xml:space="preserve">
<path style="fill:#AC5810;" d="M77.37,19.32C46.83,3.21,19.03,14.69,9.01,30.38c-3.28,5.13-5.6,14.46-5.51,21.86
	c0.18,15.23,8.61,32.2,26.8,49.32c22.38,21.06,45.28,19.22,52.48,19.45c9.14-2.23,15.27-4.13,14.33-12.65
	c-0.12-1.1-1.08-3.15-2.3-4.04c-4.65-2.82-14.36-4.29-18.93-11.08c-6.64-9.89,1.62-10.39,9.53-6.16
	c8.47,4.53,13.31,7.3,1.8,3.58c6.23-0.57,15.29-4.33,16.52-14.84C124.61,67.31,110.73,36.92,77.37,19.32z M89.84,71
	c-2.34,3.56-8.12,2.3-1.9-1.02c-3.79-3.34-4.28-8.96-1.82-11.16c2.5-2.23,7.2-1.72,10.99,1.64C90.88,63.83,91.67,68.2,89.84,71z"
	/>
</svg>
